# xmcd
#
# Track frame offsets: 
#        150
#        13254
#        25327
#        39022
#        51221
#        64903
#        80162
#        93236
#        105916
#        119296
#        132490
#        152032
#        165384
#        180658
#        192933
#        206556
#        225386
#        241283
#
# Disc length: 3393 seconds
#
# Revision: 0
# Processed by: cddbd v1.5.2PL0 Copyright (c) Steve Scherf et al.
# Submitted via: ExactAudioCopy v0.99pb4
#
DISCID=e40d3f12
DTITLE=Don Byas - Laura - Live in Paris
DYEAR=1900
DGENRE=Jazz
TTITLE0=Summertime
TTITLE1=Night and Day
TTITLE2=Easy to Love
TTITLE3=Where or When
TTITLE4=Flamingo
TTITLE5=Stardust
TTITLE6=Ol' Man River
TTITLE7=The Man I Love
TTITLE8=Georgia on My Mind
TTITLE9=Over the Rainbow
TTITLE10=Laura
TTITLE11=Somebody Loves Me
TTITLE12=Old Folks at Home
TTITLE13=Riviera Blues (Blues à la Don)
TTITLE14=Smoke Gets in Your Eyes
TTITLE15=I Cover the Waterfront
TTITLE16=It's the Talk of the Town
TTITLE17=A Pretty Girl Is Like a Melody
EXTD=
EXTT0=
EXTT1=
EXTT2=
EXTT3=
EXTT4=
EXTT5=
EXTT6=
EXTT7=
EXTT8=
EXTT9=
EXTT10=
EXTT11=
EXTT12=
EXTT13=
EXTT14=
EXTT15=
EXTT16=
EXTT17=
PLAYORDER=
